<svg fill="none" height="168" viewBox="0 0 150 168" width="150" xmlns="http://www.w3.org/2000/svg"><path d="m45.154 101.514c-.29-.508-.507-1.089-.616-1.707.109.581.326 1.163.616 1.707zm-.038-33.879c-.291.69-.472 1.417-.544 2.216.072-.799.253-1.526.544-2.216zm.801 34.824c.29.29.616.544.978.726l24.735 13.979-24.734-13.979c-.363-.182-.69-.436-.98-.726z" fill="#073042"/><path d="m75.437 134.847h-.18c-1.814 0-3.627-.436-5.26-1.343l-36.92-20.843c-2.176-1.234-3.517-3.522-3.517-5.991v-42.412c0-1.815.325-3.558 1.087-5.083l-28.868-16.231c-1.199 2.54-1.814 5.41-1.777 8.424v70.045c.035 4.103 2.248 7.879 5.838 9.912l60.893 34.423c2.684 1.525 5.694 2.252 8.668 2.252v-.037c.073-4.394.036-22.004.036-33.116z" fill="#073042"/><g fill="#3ddc84"><path d="m104.415 66.873-.218-.327c-.181-.254-.362-.471-.544-.725.182.217.363.471.544.725.072.073.145.182.218.327zm-58.973.037c.145-.255.327-.51.508-.764-.181.254-.363.509-.508.764zm28.581-17.03c.182 0 .327-.037.509-.037-.182.037-.363.037-.509.037z"/><path d="m30.611 59.139c.797-1.671 2.031-3.05 3.7-4.067l34.744-20.516c3.227-1.925 7.216-1.961 10.517-.11l35.107 19.863c1.559.872 2.937 2.143 3.953 3.632l28.397-16.958c-1.668-2.433-3.917-4.503-6.492-5.955l-57.992-32.79c-5.403-3.049-12.004-2.976-17.335.182l-57.34 33.842c-2.757 1.634-4.787 3.958-6.092 6.682l28.832 16.195z"/><path d="m72.574 50.17c.072-.037.145-.037.217-.073-.072.036-.145.036-.217.073zm-27.347 17.138c.072-.145.145-.29.217-.4-.072.146-.145.255-.217.4l-.11.327z"/></g><path d="m146.994 40.983-28.398 16.958c1.088 1.597 1.742 3.485 1.777 5.41v40.378c.037 3.776-1.922 7.262-5.149 9.15l-34.745 20.516c-1.56.908-3.3 1.417-5.041 1.453.037 11.075.037 28.686-.036 33.08v.035c3.01-.035 5.984-.835 8.668-2.396l57.338-33.879c5.332-3.158 8.596-8.895 8.523-15.105v-66.63c-.035-3.233-1.123-6.32-2.937-8.97z" fill="#4285f4"/><path d="m105.069 99.407c-.036.073-.036.146-.073.219.037-.073.073-.146.073-.219zm-.364-32.062c-.072-.182-.181-.327-.29-.509.109.182.218.364.29.509zm-26.039 49.783 23.284-13.762c.145-.072.253-.181.398-.254-.145.073-.253.182-.398.254zm26.112-16.885c-.073.182-.181.363-.253.545.072-.218.144-.4.253-.545zm-1.705 2.287c.327-.29.653-.654.943-1.016-.29.362-.616.726-.943 1.016zm1.415-1.779c-.146.255-.327.509-.508.763.181-.254.362-.508.508-.763z" fill="#4285f4"/><path d="m75.4 118.072h-.255c-1.196 0-2.429-.291-3.517-.908l-24.734-13.979c-.364-.219-.69-.436-.98-.727-.29-.29-.544-.617-.725-.944-.29-.508-.508-1.089-.616-1.707-.037-.217-.037-.399-.037-.617v-28.431c0-.291 0-.618.037-.908.072-.763.253-1.526.543-2.216l-6.673-4.103-7.834-4.393c-.726 1.525-1.088 3.268-1.088 5.083v42.412c.037 2.469 1.378 4.756 3.518 5.991l36.884 20.879c1.632.908 3.445 1.38 5.259 1.344h.18c0-5.41-.035-9.26-.035-9.26z" fill="#073042"/><path d="m75.4 118.072h-.255c-1.196 0-2.429-.291-3.517-.908l-24.734-13.979c-.364-.219-.69-.436-.98-.727-.29-.29-.544-.617-.725-.944-.29-.508-.508-1.089-.616-1.707-.037-.217-.037-.399-.037-.617v-28.431c0-.291 0-.618.037-.908.072-.763.253-1.526.543-2.216l-6.673-4.103-7.834-4.393c-.726 1.525-1.088 3.268-1.088 5.083v42.412c.037 2.469 1.378 4.756 3.518 5.991l36.884 20.879c1.632.908 3.445 1.38 5.259 1.344h.18c0-5.41-.035-9.26-.035-9.26z" fill="#041619"/><path d="m114.642 54.31-35.107-19.864c-3.264-1.852-7.254-1.816-10.517.108l-34.745 20.519c-1.668.98-2.902 2.396-3.699 4.067l7.87 4.393 6.673 4.103.109-.326c.072-.146.145-.291.217-.4.146-.254.327-.509.509-.763.471-.617 1.05-1.125 1.74-1.561l23.284-13.762c.508-.29 1.015-.508 1.56-.69.072-.036.144-.036.217-.073.399-.109.798-.181 1.233-.217.181 0 .326-.037.508-.037h.472c.616.037 1.196.145 1.812.327.436.146.871.326 1.27.58l23.538 13.328c.797.435 1.486 1.016 2.103 1.706.181.218.363.472.544.726l.217.327 6.021-4.03 8.16-4.903c-1.051-1.415-2.394-2.686-3.989-3.558z" fill="#3ddc84"/><path d="m114.642 54.31-35.107-19.864c-3.264-1.852-7.254-1.816-10.517.108l-34.745 20.519c-1.668.98-2.902 2.396-3.699 4.067l7.87 4.393 6.673 4.103.109-.326c.072-.146.145-.291.217-.4.146-.254.327-.509.509-.763.471-.617 1.05-1.125 1.74-1.561l23.284-13.762c.508-.29 1.015-.508 1.56-.69.072-.036.144-.036.217-.073.399-.109.798-.181 1.233-.217.181 0 .326-.037.508-.037h.472c.616.037 1.196.145 1.812.327.436.146.871.326 1.27.58l23.538 13.328c.797.435 1.486 1.016 2.103 1.706.181.218.363.472.544.726l.217.327 6.021-4.03 8.16-4.903c-1.051-1.415-2.394-2.686-3.989-3.558z" fill="#37bf6e"/><path d="m104.417 66.873c.109.182.181.327.29.508l.218.436c.109.29.217.618.29.907.109.473.181.944.181 1.453v27.052c0 .763-.109 1.488-.326 2.178-.036.074-.036.146-.073.219-.072.217-.145.399-.254.617-.073.182-.181.363-.253.544-.145.254-.327.508-.508.764-.29.362-.58.689-.944 1.016-.217.218-.471.399-.724.581-.145.072-.255.182-.399.254l-23.284 13.762c-1.016.581-2.14.907-3.264.981v7.516s0 3.848.036 9.259c1.74-.036 3.482-.509 5.042-1.453l34.743-20.515c3.229-1.925 5.186-5.41 5.151-9.151v-40.378c-.037-1.96-.689-3.813-1.778-5.41l-8.16 4.902z" fill="#4285f4"/><path d="m104.417 66.873c.109.182.181.327.29.508l.218.436c.109.29.217.618.29.907.109.473.181.944.181 1.453v27.052c0 .763-.109 1.488-.326 2.178-.036.074-.036.146-.073.219-.072.217-.145.399-.254.617-.073.182-.181.363-.253.544-.145.254-.327.508-.508.764-.29.362-.58.689-.944 1.016-.217.218-.471.399-.724.581-.145.072-.255.182-.399.254l-23.284 13.762c-1.016.581-2.14.907-3.264.981v7.516s0 3.848.036 9.259c1.74-.036 3.482-.509 5.042-1.453l34.743-20.515c3.229-1.925 5.186-5.41 5.151-9.151v-40.378c-.037-1.96-.689-3.813-1.778-5.41l-8.16 4.902z" fill="#3870b2"/><path d="m72.575 50.17c-.544.145-1.052.399-1.559.69l-23.284 13.761 23.284-13.763c.47-.29 1.015-.544 1.559-.69z" fill="#d7effe"/><path d="m72.575 50.17c-.544.145-1.052.399-1.559.69l-23.284 13.761 23.284-13.763c.47-.29 1.015-.544 1.559-.69z" fill="#000" opacity=".1"/><path d="m103.653 65.82c-.581-.69-1.306-1.27-2.104-1.707l-23.538-13.326 23.538 13.326c.798.436 1.523 1.017 2.104 1.707z" fill="#d7effe"/><path d="m103.653 65.82c-.581-.69-1.306-1.27-2.104-1.707l-23.538-13.326 23.538 13.326c.798.436 1.523 1.017 2.104 1.707z" fill="#000" opacity=".1"/><path d="m72.79 50.097c.397-.11.797-.182 1.232-.218-.435.036-.835.109-1.233.218z" fill="#d7effe"/><path d="m72.79 50.097c.397-.11.797-.182 1.232-.218-.435.036-.835.109-1.233.218z" fill="#000" opacity=".1"/><path d="m74.965 49.879c.616.036 1.197.146 1.813.326-.616-.18-1.197-.29-1.813-.326z" fill="#d7effe"/><path d="m74.965 49.879c.616.036 1.197.146 1.813.326-.616-.18-1.197-.29-1.813-.326z" fill="#000" opacity=".1"/><path d="m104.993 99.626c-.072.217-.145.399-.253.617.108-.218.181-.4.253-.617z" fill="#d7effe"/><path d="m104.993 99.626c-.072.217-.145.399-.253.617.108-.218.181-.4.253-.617z" fill="#000" opacity=".1"/><path d="m104.923 67.781c.108.29.217.618.29.908-.073-.29-.182-.581-.29-.908z" fill="#d7effe"/><path d="m104.923 67.781c.108.29.217.618.29.908-.073-.29-.182-.581-.29-.908z" fill="#000" opacity=".1"/><path d="m105.066 99.408c.218-.69.326-1.416.326-2.179v-27.051 27.051c0 .763-.108 1.49-.326 2.18z" fill="#d7effe"/><path d="m105.066 99.408c.218-.69.326-1.416.326-2.179v-27.051 27.051c0 .763-.108 1.49-.326 2.18z" fill="#000" opacity=".1"/></svg>