<svg fill="#fff" height="24" viewBox="0 0 24 24" width="24" xmlns="http://www.w3.org/2000/svg">
    <path d="M19.668 3H4.328a1.313 1.313 0 00-1.327 1.298v15.403A1.314 1.314 0 004.33 21h15.34A1.317 1.317 0 0021 19.701V4.298a1.316 1.316 0 00-1.332-1.297zM8.34 18.339H5.668v-8.59H8.34zM7.005 8.575a1.548 1.548 0 111.547-1.548 1.547 1.547 0 01-1.547 1.548zm11.334 9.763h-2.67v-4.177c0-.996-.016-2.278-1.387-2.278-1.389 0-1.6 1.086-1.6 2.207v4.248h-2.667v-8.59h2.559v1.175h.037a2.804 2.804 0 012.525-1.388c2.703 0 3.203 1.779 3.203 4.092z"/>
</svg>