<?xml version="1.0" encoding="UTF-8" standalone="no"?>
<!DOCTYPE svg PUBLIC "-//W3C//DTD SVG 1.1//EN" "http://www.w3.org/Graphics/SVG/1.1/DTD/svg11.dtd">
<svg width="100%" height="100%" viewBox="0 0 600 600" version="1.1" xmlns="http://www.w3.org/2000/svg"
     xmlns:xlink="http://www.w3.org/1999/xlink" xml:space="preserve"
     style="fill-rule:evenodd;clip-rule:evenodd;"
     xmlns:xsi="http://www.w3.org/2001/XMLSchema-instance">
    <path d="M301.214,418.529C300.972,418.54 300.73,418.556 300.488,418.558C297.091,418.587 293.745,417.722 290.787,416.051L222.6,377.537C220.635,376.43 218.996,374.823 217.85,372.88C216.703,370.937 216.088,368.727 216.067,366.471L216.066,288.156C216.058,287.32 216.093,286.49 216.172,285.673C216.377,283.54 216.909,281.503 217.707,279.602L199.294,268.265L177.742,256.191C175.719,260.427 174.734,265.233 174.784,270.219L174.785,387.053C174.848,393.894 178.571,400.201 184.531,403.561L286.256,461.02C290.669,463.512 295.661,464.802 300.729,464.76C300.911,464.758 301.092,464.742 301.274,464.738C301.245,449.844 301.217,439.234 301.217,439.234L301.214,418.529Z"
          style="fill:rgb(4,22,25);fill-rule:nonzero;"/>
    <path d="M409.451,242.913L312.64,188.233C303.643,183.15 292.581,183.256 283.683,188.511L187.919,245.004C183.313,247.725 179.93,251.616 177.75,256.173L177.742,256.191L199.295,268.265L217.707,279.602C217.827,279.317 217.922,279.019 218.055,278.741C218.238,278.359 218.433,277.984 218.641,277.617C219.056,276.883 219.523,276.179 220.04,275.511C221.365,273.798 223.005,272.353 224.871,271.254L289.062,233.387C290.422,232.587 291.874,231.955 293.387,231.507C295.529,230.865 297.765,230.598 299.998,230.72C302.976,230.885 305.876,231.734 308.473,233.201L373.366,269.853C375.543,271.084 377.493,272.678 379.134,274.565C379.676,275.19 380.182,275.847 380.647,276.531C380.855,276.837 381.049,277.151 381.24,277.467L397.794,266.392L420.344,252.925L420.313,252.876C417.547,248.799 413.767,245.354 409.451,242.913Z"
          style="fill:rgb(55,191,110);fill-rule:nonzero;"/>
    <path d="M381.24,277.467C381.513,277.917 381.773,278.375 382.008,278.844C382.208,279.243 382.395,279.648 382.566,280.059C382.909,280.881 383.193,281.726 383.412,282.588C383.74,283.881 383.921,285.214 383.935,286.568L383.934,361.095C383.956,363.946 383.351,366.768 382.162,369.36C381.934,369.859 381.693,370.35 381.424,370.827C379.75,373.793 377.322,376.267 374.388,377.997L310.197,415.871C307.466,417.48 304.381,418.393 301.214,418.529L301.217,439.234C301.217,439.234 301.245,449.844 301.274,464.738C306.103,464.608 310.907,463.296 315.213,460.75L410.976,404.249C419.875,398.997 425.314,389.366 425.216,379.033L425.218,267.849C425.165,262.483 423.34,257.343 420.344,252.925L397.794,266.392L381.24,277.467Z"
          style="fill:rgb(56,112,178);fill-rule:nonzero;"/>
    <path d="M177.75,256.173C179.93,251.616 183.313,247.725 187.919,245.004L283.683,188.511C292.581,183.256 303.643,183.149 312.64,188.233L409.451,242.913C413.767,245.353 417.547,248.799 420.313,252.876L420.344,252.925L498.594,206.193C494.029,199.463 487.79,193.776 480.666,189.747L320.864,99.49C306.013,91.099 287.753,91.274 273.066,99.95L114.994,193.199C107.391,197.691 101.807,204.112 98.209,211.634L177.742,256.191L177.75,256.173ZM301.274,464.738C301.092,464.742 300.911,464.758 300.729,464.76C295.661,464.802 290.669,463.512 286.256,461.02L184.531,403.562C178.572,400.202 174.848,393.894 174.785,387.053L174.784,270.219C174.734,265.233 175.719,260.427 177.742,256.191L98.209,211.635C94.86,218.633 93.229,226.578 93.312,234.821L93.314,427.671C93.424,438.973 99.544,449.374 109.402,454.922L277.313,549.765C284.598,553.879 292.837,556.008 301.203,555.938L301.205,555.803C301.393,543.776 301.333,495.262 301.274,464.738Z"
          style="fill:none;fill-rule:nonzero;stroke:rgb(8,48,66);stroke-width:10px;"/>
    <path d="M498.594,206.194L420.344,252.925C423.341,257.343 425.165,262.483 425.218,267.849L425.216,379.033C425.314,389.366 419.875,398.997 410.976,404.249L315.213,460.751C310.907,463.296 306.103,464.609 301.274,464.738C301.333,495.262 301.393,543.776 301.205,555.802L301.203,555.938C309.475,555.871 317.736,553.68 325.111,549.321L483.183,456.056C497.872,447.387 506.85,431.489 506.688,414.433L506.691,230.908C506.604,222.018 503.573,213.503 498.594,206.194Z"
          style="fill:none;fill-rule:nonzero;stroke:rgb(8,48,66);stroke-width:10px;"/>
    <path d="M301.203,555.938C292.837,556.007 284.598,553.878 277.313,549.764L109.402,454.921C99.545,449.374 93.424,438.973 93.314,427.671L93.312,234.821C93.23,226.578 94.86,218.633 98.209,211.634C101.807,204.112 107.391,197.691 114.994,193.199L273.066,99.949C287.753,91.274 306.013,91.098 320.864,99.49L480.666,189.747C487.79,193.776 494.029,199.463 498.594,206.193C503.573,213.503 506.604,222.018 506.691,230.908L506.688,414.433C506.85,431.489 497.872,447.387 483.183,456.056L325.111,549.32C317.736,553.68 309.475,555.871 301.203,555.938Z"
          style="fill:none;fill-rule:nonzero;stroke:rgb(8,48,66);stroke-width:10px;"/>
</svg>
