<svg enable-background="new 0 0 70 70" viewBox="0 0 70 70" xml:space="preserve" xmlns="http://www.w3.org/2000/svg">
<linearGradient id="c" x1="49.609" x2="30.346" y1="52.554" y2="7.1627" gradientUnits="userSpaceOnUse">
<stop stop-color="#FF1F51" offset=".172"/>
<stop stop-color="#FF3648" offset=".2798"/>
<stop stop-color="#FF593B" offset=".4681"/>
<stop stop-color="#FF7231" offset=".6464"/>
<stop stop-color="#FF812B" offset=".8088"/>
<stop stop-color="#FF8629" offset=".9409"/>
</linearGradient>
<polygon points="58.2 0 38.2 7.2 22.4 0 6.9 38.9 24.7 31.8 24.4 51.5 62.5 52.2 70 13.7" fill="url(#c)"/>
<linearGradient id="b" x1="33.259" x2="25.104" y1="12.887" y2="33.436" gradientUnits="userSpaceOnUse">
<stop stop-color="#9039D0" offset=".021505"/>
<stop stop-color="#FF1F51" offset=".629"/>
</linearGradient>
<polygon points="50.8 22.7 25.6 6.2 5.3 18.7 49.8 35.9" fill="url(#b)"/>
<linearGradient id="a" x1=".2898" x2="45.284" y1="11.224" y2="68.42" gradientUnits="userSpaceOnUse">
<stop stop-color="#9039D0" offset=".1075"/>
<stop stop-color="#FF1F51" offset=".3871"/>
<stop stop-color="#FF1F51" offset=".629"/>
<stop stop-color="#FF3648" offset=".6599"/>
<stop stop-color="#FF593B" offset=".7139"/>
<stop stop-color="#FF7231" offset=".765"/>
<stop stop-color="#FF812B" offset=".8116"/>
<stop stop-color="#FF8629" offset=".8495"/>
</linearGradient>
<polygon points="29.1 68.2 55.3 64.7 47 48.7 52.5 42 53.1 37.9 25.6 6.1 0 12.4 0 49.1 14.8 70 29.1 68.2 29.1 68.2 29.1 68.2" fill="url(#a)"/>
<rect x="13.4" y="13.4" width="43.2" height="43.2"/>
<rect x="17.5" y="48.5" width="16.2" height="2.7" fill="#fff"/>
<polygon points="34.6 19 38.9 19 43.6 26.6 48.3 19 52.6 19 52.6 36.9 48.6 36.9 48.6 25.2 43.6 32.9 43.5 32.9 38.5 25.3 38.5 36.9 34.6 36.9" fill="#fff"/>
<path d="m17.4 19h8.2c2.3 0 4 0.6 5.2 1.8 1 1 1.5 2.4 1.5 4.1v0.1c0 1.5-0.4 2.6-1.1 3.5s-1.6 1.6-2.8 2l4.4 6.4h-4.6l-3.7-5.5h-3.3v5.5h-3.9v-17.9zm8 8.7c1 0 1.7-0.2 2.2-0.7s0.8-1.1 0.8-1.8v-0.1c0-0.9-0.3-1.5-0.8-1.9s-1.3-0.6-2.3-0.6h-3.9v5.1h4z" fill="#fff"/>
</svg>