<svg fill="none" height="27" viewBox="0 0 24 27" width="24" xmlns="http://www.w3.org/2000/svg">
    <g fill="#000">
        <path d="m12.075 21.585h-.029c-.29 0-.58-.07-.841-.215l-5.91-3.336c-.349-.198-.563-.564-.563-.96v-6.788c0-.29.052-.57.174-.814l-4.621-2.598c-.192.407-.29.866-.285 1.349v11.212c.006.657.36 1.261.935 1.586l9.747 5.51c.43.245.912.361 1.388.361v-.006c.011-.703.005-3.522.005-5.3z"
              opacity=".1"/>
        <path d="m4.9 9.466c.128-.267.326-.488.593-.65l5.561-3.285c.517-.308 1.155-.313 1.684-.017l5.62 3.18c.249.139.47.342.632.58l4.546-2.714c-.267-.39-.627-.72-1.04-.953l-9.282-5.249c-.865-.488-1.922-.476-2.775.03l-9.179 5.416c-.44.261-.766.633-.975 1.07l4.615 2.591z"
              opacity=".6"/>
        <path d="m23.53 6.56-4.547 2.715c.175.255.28.558.285.866v6.463c.006.605-.308 1.163-.824 1.465l-5.562 3.284c-.25.145-.528.227-.807.232.006 1.773.006 4.592-.006 5.296v.005c.482-.005.958-.133 1.388-.383l9.178-5.423c.853-.506 1.376-1.424 1.364-2.418v-10.666c-.005-.517-.18-1.011-.47-1.436z"
              opacity=".3"/>
        <path d="m12.07 18.9h-.041c-.192 0-.39-.046-.563-.145l-3.96-2.238c-.058-.035-.11-.07-.156-.116-.047-.047-.087-.099-.116-.151-.047-.082-.082-.175-.1-.274-.005-.034-.005-.063-.005-.098v-4.552c0-.046 0-.098.006-.145.012-.122.04-.244.087-.354l-1.068-.657-1.254-.703c-.116.244-.174.523-.174.813v6.79c.005.394.22.76.563.958l5.904 3.342c.261.146.551.221.842.215h.029c0-.866-.006-1.482-.006-1.482l.011-1.203z"
              opacity=".5"/>
        <path d="m18.351 8.693-5.62-3.18c-.522-.295-1.16-.29-1.683.018l-5.561 3.284c-.267.157-.465.384-.592.651l1.26.704 1.067.656.018-.052c.011-.023.023-.046.035-.064.023-.04.052-.081.081-.122.075-.099.168-.18.279-.25l3.727-2.203c.081-.046.162-.081.25-.11.01-.006.022-.006.034-.012.064-.017.128-.029.197-.035.03 0 .053-.005.082-.005h.075c.099.005.192.023.29.052.07.023.14.052.204.093l3.768 2.133c.127.07.237.163.336.273.03.035.058.076.087.117l.035.052.964-.645 1.306-.785c-.168-.227-.383-.43-.639-.57z"/>
        <path d="m16.715 10.704.046.082.035.07c.017.046.035.098.046.145.018.075.03.15.03.232v4.33c0 .123-.018.239-.053.35-.006.011-.006.023-.011.034-.012.035-.024.064-.041.099-.012.03-.03.058-.04.087-.024.04-.053.081-.082.122-.046.058-.093.11-.151.163-.035.035-.076.064-.116.093-.023.012-.04.029-.064.04l-3.727 2.204c-.163.093-.342.145-.522.157v1.203s0 .616.005 1.482c.279-.006.558-.082.807-.233l5.562-3.284c.517-.308.83-.866.824-1.464v-6.464c-.006-.314-.11-.61-.284-.866l-1.306.785z"
              opacity=".7"/>
    </g>
</svg>
