<svg width="16" height="16" viewBox="0 0 16 16" fill="none" xmlns="http://www.w3.org/2000/svg"><g clip-path="url(#clip0)"><path fill-rule="evenodd" clip-rule="evenodd" d="M4 1h8a3 3 0 0 1 3 3v5.848l-1.236-.714-1.102 1.91a5.05 5.05 0 0 0-1.327 0l-1.103-1.91-2.598 1.5.976 1.69A4.993 4.993 0 0 0 7.1 15H4a3 3 0 0 1-3-3V4a3 3 0 0 1 3-3zm10.582 10.717a4.975 4.975 0 0 0-.907-.43l.455-.787.866.5-.414.717zM9.866 10.5l.455.789a4.979 4.979 0 0 0-.906.43L9 11l.866-.5z" fill="#3DDC84" fill-opacity=".6"/><path fill-rule="evenodd" clip-rule="evenodd" d="M7 12h1V8h1.5V7H8l-.005-1c-.008-.497.138-.927.437-1.028.488-.164 1.137.05 1.258.092l.295-.838C9.91 4.199 9.455 4 8.811 4c-.644 0-.994.061-1.33.389-.316.31-.465.831-.48 1.611L7 7c0 .018-.333.018-1 0v.972h1V12z" fill="#231F20" fill-opacity=".7"/><path fill-rule="evenodd" clip-rule="evenodd" d="M8.031 16.5h7.938a4 4 0 1 0-7.938 0z" fill="#6E6E6E"/><path fill="#6E6E6E" d="M9 11l.866-.5 1.5 2.598-.866.5zM14.996 11l-.866-.5-1.5 2.598.866.5z"/></g><defs><clipPath id="clip0"><path fill="#fff" d="M0 0h16v16H0z"/></clipPath></defs></svg>