<svg fill="none" height="56" viewBox="0 0 538 56" width="538" xmlns="http://www.w3.org/2000/svg" xmlns:xlink="http://www.w3.org/1999/xlink"><linearGradient id="a" gradientUnits="userSpaceOnUse" x1="37.1719" x2="10.9733" y1=".376638" y2="30.0353"><stop offset="0" stop-color="#33c3ff"/><stop offset=".87843" stop-color="#5383ec"/></linearGradient><radialGradient id="b" cx="0" cy="0" gradientTransform="matrix(42.1315 0 0 42.1318 16.1306 14.4412)" gradientUnits="userSpaceOnUse" r="1"><stop offset="0" stop-color="#5383ec"/><stop offset=".86699" stop-color="#7f52ff"/></radialGradient><path d="m78.2 18.72c1.49-.92 3.16-1.38 5-1.38 1.36 0 2.61.23 3.78.68 1.16.46 2.16 1.11 3 1.97.83.86 1.46 1.85 1.87 3h5.61c-.48-2.05-1.39-3.88-2.73-5.47s-3-2.83-5-3.7c-2-.88-4.19-1.32-6.57-1.32-2.85 0-5.43.67-7.74 2.02-2.3 1.35-4.12 3.2-5.44 5.56s-1.98 5-1.98 7.91.66 5.55 1.98 7.91 3.13 4.22 5.44 5.56 4.88 2.02 7.74 2.02c2.38 0 4.57-.44 6.57-1.32s3.66-2.11 5-3.7 2.24-3.41 2.73-5.47h-5.61c-.41 1.14-1.04 2.14-1.87 3s-1.83 1.51-3 1.97c-1.16.46-2.42.68-3.78.68-1.84 0-3.51-.46-5-1.38s-2.66-2.19-3.5-3.81-1.26-3.44-1.26-5.47.42-3.85 1.26-5.47 2.01-2.89 3.5-3.81zm39.23 3.33c-1.75-1-3.71-1.5-5.86-1.5s-4.13.5-5.9 1.5-3.14 2.37-4.14 4.12-1.5 3.7-1.5 5.85.5 4.11 1.51 5.85c1.01 1.75 2.39 3.12 4.14 4.12s3.71 1.5 5.86 1.5 4.13-.5 5.89-1.5c1.75-1 3.14-2.37 4.14-4.12 1.01-1.75 1.51-3.7 1.51-5.85s-.5-4.11-1.51-5.85c-1.01-1.75-2.39-3.12-4.14-4.12zm-.39 13.59c-.52 1.06-1.26 1.88-2.21 2.46-.96.59-2.05.88-3.27.88s-2.32-.29-3.26-.88c-.95-.58-1.68-1.41-2.2-2.46-.52-1.06-.78-2.26-.78-3.62s.26-2.58.78-3.64 1.26-1.88 2.2-2.46 2.04-.88 3.26-.88 2.31.3 3.26.89 1.69 1.41 2.21 2.46.79 2.26.79 3.63-.26 2.56-.78 3.62zm39-14.03c-1.18-.71-2.54-1.06-4.1-1.06-1.68 0-3.15.4-4.41 1.2-1.14.73-2.03 1.74-2.7 3.01-.02-.05-.04-.1-.06-.15-.61-1.3-1.49-2.3-2.62-3.01s-2.48-1.06-4.03-1.06-2.96.39-4.12 1.17c-.98.66-1.76 1.57-2.36 2.71v-3.36h-4.9v21.92h5.05v-12.71c0-1.07.19-2 .58-2.8s.93-1.41 1.65-1.84c.71-.43 1.55-.64 2.5-.64.88 0 1.64.19 2.28.58s1.12.93 1.46 1.65c.33.71.5 1.56.5 2.55v13.23h4.94v-12.71c0-1.07.2-2 .59-2.8s.95-1.41 1.67-1.84 1.55-.64 2.49-.64c.88 0 1.64.19 2.27.58.63.38 1.11.93 1.44 1.65.34.71.5 1.56.5 2.55v13.23h5.05v-13.83c0-1.73-.32-3.24-.95-4.54-.64-1.3-1.54-2.3-2.72-3.01zm26.16.41c-1.53-.98-3.28-1.47-5.23-1.47-1.8 0-3.38.4-4.75 1.2-1.17.68-2.1 1.62-2.82 2.78v-3.47h-4.94v28.76h5.05v-10.14c.71 1.08 1.6 1.96 2.71 2.6 1.36.8 2.95 1.2 4.76 1.2 1.94 0 3.68-.49 5.22-1.47s2.75-2.34 3.62-4.09 1.31-3.72 1.31-5.92-.44-4.17-1.31-5.92-2.07-3.11-3.61-4.09zm-1.05 13.63c-.52 1.05-1.25 1.87-2.19 2.46s-2.01.89-3.21.89-2.31-.29-3.25-.88-1.68-1.41-2.2-2.46-.79-2.27-.79-3.64.26-2.58.79-3.63 1.26-1.87 2.2-2.46 2.03-.89 3.25-.89 2.27.3 3.21.89 1.67 1.41 2.19 2.46.78 2.26.78 3.63-.26 2.58-.78 3.63zm25.89-13.6c-1.75-1-3.71-1.5-5.86-1.5s-4.13.5-5.9 1.5-3.14 2.37-4.14 4.12-1.5 3.7-1.5 5.85.5 4.11 1.51 5.85c1.01 1.75 2.39 3.12 4.14 4.12s3.71 1.5 5.86 1.5 4.13-.5 5.89-1.5c1.75-1 3.14-2.37 4.14-4.12 1.01-1.75 1.51-3.7 1.51-5.85s-.5-4.11-1.51-5.85c-1.01-1.75-2.39-3.12-4.14-4.12zm-.39 13.59c-.52 1.06-1.26 1.88-2.21 2.46-.96.59-2.05.88-3.27.88s-2.32-.29-3.26-.88c-.95-.58-1.68-1.41-2.2-2.46-.52-1.06-.78-2.26-.78-3.62s.26-2.58.78-3.64 1.26-1.88 2.2-2.46 2.04-.88 3.26-.88 2.31.3 3.26.89 1.69 1.41 2.21 2.46.79 2.26.79 3.63-.26 2.56-.78 3.62zm24.14-4.37c-.87-.61-1.88-1.02-3.04-1.22l-4.82-.83c-.56-.1-1.02-.24-1.38-.43-.36-.18-.64-.42-.82-.71s-.28-.62-.28-1.01c0-.51.15-.97.45-1.37s.72-.71 1.27-.93 1.18-.33 1.89-.33 1.31.12 1.87.34c.56.23 1.02.55 1.37.95.35.41.57.89.65 1.45h5.03c-.1-1.34-.54-2.51-1.32-3.51s-1.83-1.77-3.15-2.31-2.81-.81-4.46-.81-3.17.29-4.46.87-2.29 1.38-2.99 2.4-1.05 2.18-1.05 3.48c0 1.06.24 2.03.72 2.91s1.15 1.62 2.02 2.21 1.89.98 3.06 1.17l4.86.81c.46.07.86.22 1.21.44s.62.5.81.82c.19.33.29.69.29 1.09 0 .54-.17 1.02-.52 1.42-.35.41-.84.72-1.47.95s-1.33.34-2.12.34c-.84 0-1.58-.11-2.21-.33-.64-.22-1.15-.54-1.54-.95s-.62-.91-.7-1.5h-5.05c.09 1.34.55 2.53 1.38 3.56s1.96 1.83 3.37 2.4c1.41.56 3 .85 4.77.85s3.21-.29 4.59-.88c1.38-.58 2.46-1.41 3.25-2.47s1.19-2.26 1.19-3.58c0-1.07-.23-2.06-.7-2.99-.46-.92-1.13-1.69-2-2.3zm22.18-9.27c-1.68-.97-3.6-1.46-5.76-1.46s-4.03.5-5.77 1.49c-1.73.99-3.1 2.36-4.1 4.1s-1.5 3.69-1.5 5.84.5 4.17 1.49 5.93 2.35 3.12 4.07 4.11c1.72.98 3.66 1.48 5.81 1.48 1.7 0 3.25-.26 4.64-.79 1.4-.53 2.59-1.28 3.57-2.25s1.73-2.13 2.25-3.49h-5.5c-.56.74-1.25 1.32-2.1 1.73s-1.79.62-2.85.62c-1.2 0-2.27-.29-3.22-.88-.95-.58-1.69-1.4-2.23-2.45-.43-.83-.68-1.76-.78-2.77h17.29v-1.22c0-2.23-.47-4.21-1.4-5.94s-2.24-3.08-3.93-4.06zm-11.87 7.84c.13-.72.34-1.4.67-2.02.54-1.02 1.28-1.82 2.23-2.4s2.02-.87 3.22-.87 2.26.3 3.18.9 1.63 1.43 2.13 2.49c.28.59.47 1.22.59 1.89h-12.02zm51.1 4.77-.49 1.67-.49-1.67-9.18-21.59h-6.83v29.96h5.26v-21.27l-.06-.98 9.25 22.26h3.94l9.27-22.41-.04 1.13v21.27h5.26v-29.96h-6.91l-8.97 21.59zm35.65-.88c0 1.03-.2 1.96-.62 2.77s-1.02 1.43-1.79 1.88-1.66.67-2.65.67c-.94 0-1.74-.2-2.41-.59s-1.17-.96-1.53-1.7-.54-1.64-.54-2.7v-13.01h-5.03v13.78c0 1.8.33 3.35.98 4.64s1.58 2.29 2.76 2.97 2.56 1.03 4.13 1.03c1.68 0 3.15-.39 4.4-1.18 1.01-.63 1.82-1.5 2.45-2.56v3.23h4.9v-21.92h-5.05zm9.98 9.25h5.05v-29.96h-5.05zm16.79-27.27h-4.71v3.55c0 .53-.17.96-.49 1.29-.33.33-.76.5-1.31.5h-2.4l-.02 4.39h3.85l.02 11.71c0 1.11.26 2.11.78 3 .52.88 1.25 1.58 2.18 2.08s1.99.75 3.16.75h4.73v-4.39h-3.72c-.6 0-1.1-.2-1.49-.59s-.59-.89-.59-1.49l-.02-11.07h5.82l.02-4.39h-5.82v-5.35zm8.56 3.04h5.76v-5.01h-5.76zm.36 24.23h5.05v-21.92h-5.05zm27.7-20.96c-1.53-.98-3.28-1.47-5.23-1.47-1.8 0-3.38.4-4.75 1.2-1.17.68-2.1 1.62-2.82 2.78v-3.47h-4.94v28.76h5.05v-10.14c.71 1.08 1.6 1.96 2.71 2.6 1.36.8 2.95 1.2 4.76 1.2 1.94 0 3.68-.49 5.22-1.47s2.75-2.34 3.62-4.09 1.3-3.72 1.3-5.92-.43-4.17-1.3-5.92-2.07-3.11-3.61-4.09zm-1.05 13.63c-.52 1.05-1.25 1.87-2.19 2.46s-2.01.89-3.21.89-2.31-.29-3.25-.88c-.94-.58-1.68-1.41-2.2-2.46-.53-1.06-.79-2.27-.79-3.64s.26-2.58.79-3.63 1.26-1.87 2.2-2.46 2.03-.89 3.25-.89 2.27.3 3.21.89 1.67 1.41 2.19 2.46.78 2.26.78 3.63-.26 2.58-.78 3.63zm9.75 7.33h5.05v-29.96h-5.05zm23.47-21.49c-1.33-.63-2.88-.94-4.67-.94s-3.24.3-4.57.89-2.4 1.41-3.19 2.44-1.27 2.2-1.42 3.5h4.99c.07-.51.28-.97.63-1.38s.82-.73 1.42-.97 1.29-.36 2.08-.36 1.49.13 2.08.4c.58.26 1.03.64 1.35 1.13.31.49.47 1.07.47 1.74v.44c-.06.29-.15.54-.3.72-.23.29-.54.45-.92.49l-5.42.62c-1.37.14-2.6.54-3.68 1.19s-1.93 1.47-2.55 2.47c-.61 1-.92 2.1-.92 3.3s.32 2.3.95 3.26 1.51 1.72 2.62 2.26 2.38.81 3.79.81c1.58 0 2.94-.35 4.08-1.04 1.01-.62 1.8-1.49 2.39-2.6v3.13h4.99v-14.53c0-1.61-.37-3.02-1.1-4.22s-1.77-2.11-3.09-2.74zm-.83 13.29c0 .96-.2 1.79-.6 2.52-.4.72-.97 1.28-1.71 1.67s-1.59.59-2.55.59c-.74 0-1.4-.12-1.97-.36s-1.01-.59-1.33-1.05c-.31-.46-.47-.98-.47-1.56s.14-1.09.41-1.55.65-.84 1.13-1.14 1.04-.48 1.67-.56l5.42-.63v2.09zm16.24-19.07h-4.71v3.55c0 .53-.16.96-.49 1.29s-.76.5-1.31.5h-2.4l-.02 4.39h3.85l.02 11.71c0 1.11.26 2.11.78 3s1.25 1.58 2.18 2.08 1.99.75 3.16.75h4.73v-4.39h-3.72c-.6 0-1.09-.2-1.49-.59s-.59-.89-.59-1.49l-.02-11.07h5.82l.02-4.39h-5.82v-5.35zm14.89-2c-.92.46-1.64 1.11-2.15 1.95-.51.83-.77 1.8-.77 2.9v2.5h-3.87v4.39h3.87v17.53h5.05v-17.53h5.74v-4.39h-5.74v-2.03c0-.58.19-1.06.56-1.42s.85-.55 1.43-.55h3.9v-4.04h-4.84c-1.2 0-2.26.23-3.18.7zm26.39 8.34c-1.75-1-3.71-1.5-5.86-1.5s-4.13.5-5.9 1.5c-1.76 1-3.14 2.37-4.14 4.12s-1.5 3.7-1.5 5.85.5 4.11 1.51 5.85c1.01 1.75 2.39 3.12 4.14 4.12s3.71 1.5 5.86 1.5 4.13-.5 5.88-1.5 3.14-2.37 4.14-4.12c1.01-1.75 1.51-3.7 1.51-5.85s-.5-4.11-1.51-5.85c-1.01-1.75-2.39-3.12-4.14-4.12zm-.39 13.59c-.52 1.06-1.26 1.88-2.21 2.46-.96.59-2.05.88-3.27.88s-2.32-.29-3.26-.88c-.95-.58-1.68-1.41-2.2-2.46s-.78-2.26-.78-3.62.26-2.58.78-3.64 1.26-1.88 2.2-2.46c.95-.58 2.04-.88 3.26-.88s2.31.3 3.26.89 1.69 1.41 2.21 2.46c.53 1.05.79 2.26.79 3.63s-.26 2.56-.78 3.62zm16.79-13.52c-.83.57-1.53 1.33-2.1 2.26v-3.32h-5.01v21.92h5.05v-11.83c0-1.06.22-1.97.67-2.74s1.09-1.36 1.93-1.78c.83-.41 1.82-.62 2.94-.62h1.41v-5.09h-.81c-1.55 0-2.92.4-4.09 1.21zm39.8 2.5c-.64-1.3-1.54-2.3-2.72-3.01s-2.54-1.06-4.1-1.06c-1.68 0-3.15.4-4.41 1.2-1.14.73-2.03 1.74-2.7 3.01-.02-.05-.04-.1-.06-.15-.61-1.3-1.49-2.3-2.62-3.01s-2.48-1.06-4.03-1.06-2.96.39-4.12 1.17c-.98.66-1.76 1.57-2.37 2.71v-3.36h-4.9v21.92h5.05v-12.71c0-1.07.19-2 .58-2.8s.93-1.41 1.65-1.84c.71-.43 1.55-.64 2.5-.64.88 0 1.64.19 2.28.58s1.12.93 1.46 1.65c.33.71.5 1.56.5 2.55v13.23h4.94v-12.71c0-1.07.2-2 .59-2.8s.95-1.41 1.67-1.84 1.55-.64 2.49-.64c.88 0 1.64.19 2.27.58.63.38 1.11.93 1.44 1.65.33.71.5 1.56.5 2.55v13.23h5.05v-13.83c0-1.73-.32-3.24-.95-4.54z" fill="#fff"/><path d="m49.25 14v28l-24.25 14-24.25-14v-28l24.25-14z" fill="#6075f2"/><path d="m25 17 9.5263 5.5v11l-9.5263 5.5-9.5263-5.5v-11z" fill="#000"/><path d="m15.5 22.5 9.5-5.5 9.5 5.5 14.75-8.5-24.25-14-24.25 14z" fill="url(#a)"/><path d="m25 39-9.5-5.5v-11l-14.75-8.5v28l24.25 14z" fill="url(#b)"/><path d="m34.5 22.5v11l-9.5 5.5v17l24.25-14v-28z" fill="#6b57ff"/></svg>