<svg xmlns="http://www.w3.org/2000/svg" height="48" viewBox="0 96 960 960" width="48"><path d="M230 856q-12.75 0-21.375-8.625T200 826V693q0-12.75 8.675-21.375 8.676-8.625 21.5-8.625 12.825 0 21.325 8.625T260 693v103h103q12.75 0 21.375 8.675 8.625 8.676 8.625 21.5 0 12.825-8.625 21.325T363 856H230Zm-.175-367Q217 489 208.5 480.375T200 459V326q0-12.75 8.625-21.375T230 296h133q12.75 0 21.375 8.675 8.625 8.676 8.625 21.5 0 12.825-8.625 21.325T363 356H260v103q0 12.75-8.675 21.375-8.676 8.625-21.5 8.625ZM597 856q-12.75 0-21.375-8.675-8.625-8.676-8.625-21.5 0-12.825 8.625-21.325T597 796h103V693q0-12.75 8.675-21.375 8.676-8.625 21.5-8.625 12.825 0 21.325 8.625T760 693v133q0 12.75-8.625 21.375T730 856H597Zm132.825-367Q717 489 708.5 480.375T700 459V356H597q-12.75 0-21.375-8.675-8.625-8.676-8.625-21.5 0-12.825 8.625-21.325T597 296h133q12.75 0 21.375 8.625T760 326v133q0 12.75-8.675 21.375-8.676 8.625-21.5 8.625Z"/></svg>