<svg xmlns="http://www.w3.org/2000/svg" height="48" viewBox="0 96 960 960" width="48"><path d="M362.825 856Q350 856 341.5 847.375T333 826V723H230q-12.75 0-21.375-8.675-8.625-8.676-8.625-21.5 0-12.825 8.625-21.325T230 663h133q12.75 0 21.375 8.625T393 693v133q0 12.75-8.675 21.375-8.676 8.625-21.5 8.625ZM230 489q-12.75 0-21.375-8.675-8.625-8.676-8.625-21.5 0-12.825 8.625-21.325T230 429h103V326q0-12.75 8.675-21.375 8.676-8.625 21.5-8.625 12.825 0 21.325 8.625T393 326v133q0 12.75-8.625 21.375T363 489H230Zm366.825 367Q584 856 575.5 847.375T567 826V693q0-12.75 8.625-21.375T597 663h133q12.75 0 21.375 8.675 8.625 8.676 8.625 21.5 0 12.825-8.625 21.325T730 723H627v103q0 12.75-8.675 21.375-8.676 8.625-21.5 8.625ZM597 489q-12.75 0-21.375-8.625T567 459V326q0-12.75 8.675-21.375 8.676-8.625 21.5-8.625 12.825 0 21.325 8.625T627 326v103h103q12.75 0 21.375 8.675 8.625 8.676 8.625 21.5 0 12.825-8.625 21.325T730 489H597Z"/></svg>