<svg xmlns="http://www.w3.org/2000/svg" width="600" height="650" fill="none">
    <path d="M301.214 418.529c-.242.011-.484.027-.726.029a19.392 19.392 0 01-9.701-2.507L222.6 377.537a12.82 12.82 0 01-4.75-4.657 12.844 12.844 0 01-1.783-6.409l-.001-78.315c-.008-.836.027-1.666.106-2.483.205-2.133.737-4.17 1.535-6.071l-18.413-11.337-21.552-12.074c-2.023 4.236-3.008 9.042-2.958 14.028l.001 116.834a19.152 19.152 0 009.746 16.508l101.725 57.459a28.943 28.943 0 0014.473 3.74c.182-.002.363-.018.545-.022-.029-14.894-.057-25.504-.057-25.504l-.003-20.705z"
          fill="#4285F4"/>
    <path d="M409.451 242.913l-96.811-54.68a28.945 28.945 0 00-28.957.278l-95.764 56.493c-4.606 2.721-7.989 6.612-10.169 11.169l-.008.018 21.553 12.074 18.412 11.337c.12-.285.215-.583.348-.861.183-.382.378-.757.586-1.124.415-.734.882-1.438 1.399-2.106a17.029 17.029 0 014.831-4.257l64.191-37.867a19.37 19.37 0 014.325-1.88 19.348 19.348 0 016.611-.787 19.41 19.41 0 018.475 2.481l64.893 36.652a21.997 21.997 0 015.768 4.712 21.087 21.087 0 011.513 1.966c.208.306.402.62.593.936l16.554-11.075 22.55-13.467-.031-.049c-2.766-4.077-6.546-7.522-10.862-9.963z"
          fill="#4285F4"/>
    <path d="M381.24 277.467c.273.45.533.908.768 1.377.2.399.386.804.558 1.215.343.822.627 1.667.846 2.529.328 1.293.509 2.626.523 3.98l-.001 74.527a19.449 19.449 0 01-1.772 8.265c-.228.499-.469.99-.738 1.467a19.386 19.386 0 01-7.036 7.17l-64.191 37.874a19.336 19.336 0 01-8.983 2.658l.003 20.705s.028 10.61.057 25.504c4.829-.13 9.633-1.442 13.939-3.988l95.763-56.501a28.961 28.961 0 0014.24-25.216l.002-111.184c-.053-5.366-1.878-10.506-4.874-14.924l-22.55 13.467-16.554 11.075z"
          fill="#4285F4"/>
    <path d="M177.75 256.173c2.18-4.557 5.563-8.448 10.169-11.169l95.764-56.493a28.942 28.942 0 0128.957-.278l96.811 54.68c4.316 2.44 8.096 5.886 10.862 9.963l.031.049 78.25-46.732c-4.565-6.73-10.804-12.417-17.928-16.446L320.864 99.49a47.772 47.772 0 00-47.798.46l-158.072 93.249c-7.603 4.492-13.187 10.913-16.785 18.435l79.533 44.557.008-.018zM301.274 464.738c-.182.004-.363.02-.545.022a28.946 28.946 0 01-14.473-3.74l-101.725-57.458a19.155 19.155 0 01-9.746-16.509l-.001-116.834c-.05-4.986.935-9.792 2.958-14.028l-79.533-44.556c-3.349 6.998-4.98 14.943-4.897 23.186l.002 192.85c.11 11.302 6.23 21.703 16.088 27.251l167.911 94.843a47.775 47.775 0 0023.89 6.173l.002-.135c.188-12.027.128-60.541.069-91.065z"
          stroke="#4285F4" stroke-width="10"/>
    <path d="M498.594 206.194l-78.25 46.731c2.997 4.418 4.821 9.558 4.874 14.924l-.002 111.184a28.959 28.959 0 01-14.24 25.216l-95.763 56.502c-4.306 2.545-9.11 3.858-13.939 3.987.059 30.524.119 79.038-.069 91.064l-.002.136c8.272-.067 16.533-2.258 23.908-6.617l158.072-93.265a47.803 47.803 0 0023.505-41.623l.003-183.525c-.087-8.89-3.118-17.405-8.097-24.714z"
          stroke="#4285F4" stroke-width="10"/>
    <path clip-rule="evenodd"
          d="M301.203 555.938a47.776 47.776 0 01-23.89-6.174l-167.911-94.843c-9.857-5.547-15.978-15.948-16.088-27.25l-.002-192.85c-.082-8.243 1.548-16.188 4.897-23.187 3.598-7.522 9.182-13.943 16.785-18.435l158.072-93.25a47.772 47.772 0 0147.798-.459l159.802 90.257c7.124 4.029 13.363 9.716 17.928 16.446 4.979 7.31 8.01 15.825 8.097 24.715l-.003 183.525a47.804 47.804 0 01-23.505 41.623L325.111 549.32c-7.375 4.36-15.636 6.551-23.908 6.618z"
          stroke="#4285F4" stroke-width="10"/>
</svg>
