<svg fill="#fff" height="24" viewBox="0 0 24 24" width="24" xmlns="http://www.w3.org/2000/svg">
    <path d="M21.79993,7.7356a4.80987,4.80987,0,0,0-.79456-2.1189,2.75914,2.75914,0,0,0-2.00378-.9021c-2.799-.217-6.9972-.217-6.9972-.217H11.995s-4.19812,0-6.99659.217a2.75983,2.75983,0,0,0-2.00378.9021,4.81806,4.81806,0,0,0-.79456,2.1189A34.36132,34.36132,0,0,0,2,11.18787v1.618a34.35272,34.35272,0,0,0,.20007,3.45288,4.8,4.8,0,0,0,.79456,2.11694,3.27043,3.27043,0,0,0,2.20508.91211C6.79956,19.45166,12,19.50232,12,19.50232s4.20264-.00745,7.00159-.22192a2.77147,2.77147,0,0,0,2.00378-.90406,4.80739,4.80739,0,0,0,.79456-2.11682A34.37352,34.37352,0,0,0,22,12.8064V11.18848A34.36535,34.36535,0,0,0,21.79993,7.7356ZM9.50232,15.75122V8.24878L15.75427,12Z"/>
</svg>